<svg width="348" height="510" viewBox="0 0 348 510" fill="none" xmlns="http://www.w3.org/2000/svg">
<path d="M50 2H298C324.51 2 346 23.4903 346 50V349C346 375.51 324.51 397 298 397H50C23.4903 397 2 375.51 2 349V50C2 23.4903 23.4903 2 50 2Z" fill="white" stroke="#F3C623" stroke-width="4"/>
<rect x="88.5" y="442" width="66" height="66" rx="33" fill="#FFFCF2"/>
<rect x="88.5" y="442" width="66" height="66" rx="33" stroke="#F3C623" stroke-width="4"/>
<path d="M120.147 455.304C119.04 455.304 118.003 455.846 117.37 456.754L107.143 471.44C105.223 474.198 104.367 477.558 104.734 480.899L105.52 488.056C105.856 491.114 108.257 493.537 111.312 493.9L116.429 494.509C120.336 494.973 124.297 494.57 128.03 493.329C130.644 492.46 132.737 490.476 133.745 487.913L137.874 477.42C138.074 476.912 138.212 476.383 138.285 475.842C138.924 471.137 134.672 467.238 130.039 468.282L120.62 470.405L123.423 459.532C123.975 457.391 122.358 455.304 120.147 455.304Z" fill="#2A23F3"/>
<rect x="193.5" y="442" width="66" height="66" rx="33" fill="#FFFCF2"/>
<rect x="193.5" y="442" width="66" height="66" rx="33" stroke="#F3C623" stroke-width="4"/>
<path d="M227.853 494.696C228.96 494.696 229.997 494.154 230.63 493.246L240.857 478.56C242.777 475.802 243.633 472.442 243.266 469.101L242.48 461.944C242.144 458.886 239.743 456.463 236.688 456.1L231.571 455.491C227.664 455.027 223.703 455.43 219.97 456.671C217.356 457.54 215.263 459.524 214.255 462.087L210.126 472.58C209.926 473.088 209.788 473.617 209.715 474.158C209.076 478.863 213.328 482.762 217.961 481.718L227.073 479.665C227.12 479.654 227.149 479.659 227.171 479.665C227.196 479.674 227.226 479.691 227.253 479.719C227.28 479.746 227.297 479.777 227.304 479.803C227.31 479.824 227.314 479.854 227.302 479.901L224.577 490.468C224.025 492.609 225.642 494.696 227.853 494.696Z" fill="#CA2F2F"/>
</svg>
