<svg width="132" height="63" viewBox="0 0 132 63" fill="none" xmlns="http://www.w3.org/2000/svg">
<g clip-path="url(#clip0_3_253)">
<path opacity="0.24" fill-rule="evenodd" clip-rule="evenodd" d="M10.9525 8.75535L0.672951 47.6647C-1.8763 57.5483 8.3031 65.9092 17.5588 61.5343L55.0825 46.4595C61.3729 43.4862 62.7429 35.1696 57.7368 30.3504L29.7927 3.45048C23.5477 -2.56109 13.1134 0.376902 10.9525 8.75535Z" fill="white"/>
<path fill-rule="evenodd" clip-rule="evenodd" d="M27.1667 23.0208H23.4465C23.0428 23.0208 22.707 23.301 22.6388 23.6935L19.6378 40.6005C19.5588 41.056 19.9265 41.4869 20.3946 41.4869H24.0724C24.5003 41.4869 24.857 41.19 24.9296 40.7733L26.111 34.1104C26.1388 33.9481 26.2237 33.801 26.3504 33.6955C26.4772 33.5899 26.6376 33.5328 26.8029 33.5344H28.3445C28.538 33.5362 28.7258 33.469 28.8739 33.3451C29.0221 33.2211 29.1209 33.0485 29.1525 32.8583L29.6846 29.7105C29.7616 29.2553 29.3939 28.8269 28.9273 28.8269H27.6345C27.3224 28.8269 27.0771 28.5401 27.1296 28.2358L27.9235 23.9074C28.0024 23.4516 27.6348 23.0208 27.1667 23.0208ZM73.7841 46.4014C74.5561 46.4014 75.1476 47.1062 75.0087 47.8614L73.678 55.2861C73.6276 55.5619 73.4814 55.8113 73.2651 55.9906C73.0487 56.1699 72.7759 56.2678 72.4944 56.267H60.3823C60.1486 56.267 59.9506 56.4313 59.9085 56.6592L59.8021 57.3048C59.7893 57.3762 59.7924 57.4494 59.8112 57.5194C59.8299 57.5895 59.8637 57.6546 59.9104 57.7102C59.957 57.7658 60.0153 57.8106 60.0811 57.8414C60.147 57.8722 60.2188 57.8883 60.2916 57.8885H72.7295C73.2702 57.8885 73.6843 58.3827 73.5867 58.911L73.1129 61.4001C73.0777 61.5932 72.9755 61.7678 72.8241 61.8934C72.6726 62.019 72.4816 62.0874 72.2846 62.0868H55.8965C55.124 62.0868 54.5234 61.093 54.6623 60.3376L55.9996 53.264C56.0499 52.9881 56.1961 52.7387 56.4126 52.5594C56.6291 52.3801 56.902 52.2824 57.1835 52.2834H69.4136C69.6473 52.2834 69.7375 52.1196 69.7799 51.8909L69.9215 51.1826C69.9342 51.1112 69.931 51.038 69.9123 50.968C69.8936 50.898 69.8597 50.8329 69.8131 50.7773C69.7664 50.7217 69.7082 50.6769 69.6424 50.6461C69.5765 50.6153 69.5047 50.5992 69.432 50.5989H57.53C56.9894 50.5989 56.5758 50.105 56.6728 49.5772L57.1354 47.3823C57.1856 47.1064 57.3318 46.8569 57.5482 46.6776C57.7646 46.4982 58.0375 46.4005 58.319 46.4014H73.7841ZM50.8563 43.1276C52.7324 43.1276 54.2528 44.6435 54.2528 46.5132C54.2528 48.3835 52.7321 49.8996 50.8566 49.8996C48.9805 49.8996 47.4595 48.3835 47.4595 46.5135C47.4595 44.6435 48.9803 43.1276 50.8563 43.1276ZM76.0441 40.3255C76.4921 40.3255 76.8449 40.7207 76.7992 41.156L76.7932 41.2012L76.2836 44.2367C76.2534 44.4208 76.1609 44.5892 76.0215 44.7138C75.882 44.8384 75.704 44.9118 75.5169 44.9218L75.4663 44.9231H57.8966C57.4483 44.9231 57.0955 44.5284 57.1412 44.0926L57.1472 44.0474L57.6565 41.0114C57.687 40.8273 57.7796 40.6592 57.9191 40.5347C58.0585 40.4102 58.2365 40.3369 58.4235 40.3269L58.4741 40.3255H76.0441ZM58.4595 19.1739C58.5592 19.1736 58.6578 19.1949 58.7483 19.2364C58.8389 19.2779 58.9192 19.3387 58.9838 19.4143C59.0483 19.49 59.0955 19.5788 59.122 19.6746C59.1484 19.7703 59.1536 19.8706 59.1371 19.9685L59.1283 20.0132L54.1327 40.157C54.0921 40.3314 53.9962 40.4881 53.8591 40.6039C53.7221 40.7197 53.5513 40.7884 53.372 40.7999L53.322 40.8015H49.8636C49.7687 40.8019 49.6748 40.7826 49.5879 40.7448C49.5009 40.7071 49.4228 40.6518 49.3584 40.5825C49.294 40.5131 49.2448 40.4311 49.2139 40.3418C49.183 40.2525 49.171 40.1578 49.1788 40.0636L49.1835 40.0193L52.1854 19.8861C52.213 19.6971 52.305 19.5233 52.446 19.3939C52.587 19.2645 52.7684 19.1873 52.9598 19.1753L53.0087 19.1739H58.4592H58.4595ZM40.0089 23.6069C44.6889 23.6069 48.2642 27.0952 48.2694 31.6663C48.2754 36.314 44.6284 39.8596 39.8833 39.8188C35.3397 39.7804 31.7144 36.2204 31.7213 31.8041C31.729 27.0528 35.2138 23.6064 40.0089 23.6069ZM78.1737 23.6823C78.7746 23.6823 79.2465 24.2147 79.1794 24.7993L79.172 24.851L78.7419 27.3883C78.6978 27.6533 78.5635 27.8952 78.3614 28.0732C78.1594 28.2512 77.902 28.3544 77.6325 28.3656L77.5748 28.367H66.2552C66.0949 28.3658 65.9391 28.419 65.8133 28.518C65.6875 28.6169 65.5994 28.7557 65.5636 28.9113L65.5545 28.9573L64.8816 32.9268C64.8101 33.3632 65.1434 33.7705 65.5828 33.7987L65.6285 33.8003L76.0856 33.8472C76.6832 33.8496 77.1524 34.3791 77.0874 34.9604L77.0806 35.0119L76.6282 37.7556C76.5851 38.0217 76.4511 38.2647 76.2489 38.4437C76.0467 38.6226 75.7886 38.7266 75.5183 38.7379L75.46 38.7393H59.9682C59.2108 38.7393 58.6174 38.0624 58.7131 37.3256L58.721 37.2727L61.0981 24.6555C61.1433 24.3916 61.2781 24.1511 61.4798 23.9743C61.6816 23.7974 61.9381 23.6948 62.2067 23.6836L62.2644 23.6823H78.1737ZM39.9198 28.1753C38.0498 28.2309 36.4694 29.8631 36.4917 31.7153C36.5162 33.7121 38.148 35.2285 40.1847 35.1447C42.1627 35.0631 43.4783 33.6061 43.425 31.5551C43.3747 29.6182 41.819 28.1191 39.9198 28.1753ZM102.387 23.0208H98.6673C98.4743 23.0189 98.287 23.0856 98.139 23.2089C97.9909 23.3322 97.8919 23.504 97.8596 23.6935L94.8588 40.6005C94.7796 41.056 95.1475 41.4869 95.6159 41.4869H99.2932C99.7211 41.4869 100.078 41.19 100.15 40.7733L101.332 34.1104C101.36 33.9482 101.445 33.8011 101.571 33.6955C101.698 33.5899 101.858 33.5328 102.024 33.5344H103.565C103.97 33.5344 104.307 33.2522 104.374 32.8583L104.905 29.7105C104.983 29.2553 104.615 28.8269 104.148 28.8269H102.855C102.543 28.8269 102.298 28.5401 102.351 28.2358L103.144 23.9074C103.223 23.4516 102.855 23.0208 102.387 23.0208M129.197 23.0208C129.665 23.0208 130.033 23.4516 129.954 23.9074L129.16 28.2358C129.107 28.5401 129.353 28.8269 129.664 28.8269H130.957C131.425 28.8269 131.792 29.2553 131.715 29.7105L131.183 32.8583C131.151 33.0485 131.052 33.2211 130.904 33.3451C130.756 33.469 130.568 33.5362 130.375 33.5344H128.833C128.668 33.5327 128.507 33.5898 128.381 33.6954C128.254 33.801 128.169 33.9481 128.141 34.1104L126.863 40.7733C126.791 41.19 126.434 41.4869 126.006 41.4869H122.425C121.956 41.4869 121.589 41.056 121.668 40.6005L124.669 23.6935C124.701 23.504 124.8 23.3323 124.948 23.209C125.096 23.0857 125.284 23.019 125.476 23.0208H129.197ZM120.969 23.6639C121.709 23.6639 122.288 24.3394 122.166 25.0636L120.76 33.063C120.716 33.327 120.579 33.5668 120.374 33.7393C120.169 33.9118 119.908 34.0056 119.64 34.0039H111.5C111.276 34.0039 111.089 34.1611 111.052 34.3799L110.959 34.9373C110.91 35.2269 111.142 35.4972 111.437 35.4972H119.98C120.499 35.4972 120.903 35.9703 120.818 36.477L120.324 39.1704C120.259 39.5531 119.878 39.8286 119.486 39.8286H107.085C106.344 39.8286 105.82 39.1529 105.942 38.4289L107.252 30.6125C107.296 30.3486 107.433 30.1089 107.638 29.9365C107.844 29.7641 108.104 29.6704 108.373 29.6722H116.577C116.8 29.6722 116.987 29.5147 117.024 29.2958L117.148 28.5554C117.197 28.2656 116.966 27.9956 116.67 27.9956H108.771C108.252 27.9956 107.848 27.5222 107.933 27.0152L108.337 24.6042C108.38 24.3403 108.517 24.1006 108.723 23.9282C108.928 23.7558 109.188 23.6621 109.457 23.6639H120.969ZM86.564 23.6823H83.6429C83.3652 23.6802 83.0957 23.7762 82.8822 23.9532C82.6688 24.1302 82.5252 24.3767 82.4769 24.6492L79.9981 38.4399C79.8619 39.1986 80.4658 39.9127 81.2443 39.9127H92.4121C92.6884 39.9147 92.9565 39.8196 93.1694 39.6442C93.3822 39.4687 93.5262 39.2242 93.5759 38.9535L94.0866 36.2078C94.1999 35.5997 93.7153 35.0239 93.0911 35.0239H86.6652C86.1988 35.0239 85.8363 34.5966 85.9172 34.1419L87.5608 24.8582C87.6681 24.2517 87.1855 23.6823 86.564 23.6823ZM11.2129 35.1447C9.17676 35.2285 7.54436 33.7121 7.51989 31.7153C7.49761 29.8631 9.07804 28.2311 10.948 28.1753C12.848 28.1188 14.4031 29.6182 14.4532 31.5553C14.5068 33.6061 13.1909 35.0631 11.2129 35.1447ZM11.0371 23.6069C6.24169 23.6064 2.75716 27.0528 2.75001 31.8041C2.74259 36.2204 6.36791 39.7804 10.9117 39.8188C15.6563 39.8596 19.3036 36.314 19.2979 31.6663C19.2924 27.0952 15.7174 23.6069 11.0371 23.6069Z" fill="white"/>
</g>
<defs>
<clipPath id="clip0_3_253">
<rect width="132" height="63" fill="white"/>
</clipPath>
</defs>
</svg>
