<svg width="50" height="47" viewBox="0 0 50 47" fill="none" xmlns="http://www.w3.org/2000/svg">
<path d="M11.3005 10.9874C11.3005 13.6856 13.4878 15.8728 16.1859 15.8728H32.9359C35.6341 15.8728 37.8214 13.6856 37.8214 10.9874V1.70876C37.8214 1.28281 38.1667 0.9375 38.5926 0.9375C38.9999 0.9375 39.3869 1.11542 39.6521 1.4246L47.9229 11.0675C49.0692 12.404 49.6679 14.1243 49.5992 15.8837L48.6455 40.2933C48.4991 44.0389 45.4201 47 41.6716 47H40.613C39.8421 47 39.2172 46.3751 39.2172 45.6042V31.6458C39.2172 28.9477 37.0299 26.7604 34.3318 26.7604H14.7901C12.092 26.7604 9.90469 28.9477 9.90469 31.6458V45.6042C9.90469 46.3751 9.27975 47 8.50885 47H8.12614C4.76546 47 1.92822 44.5028 1.50146 41.1694C0.122613 30.399 0.0632158 19.5007 1.32459 8.71598L1.49456 7.26271C1.91634 3.65644 4.97182 0.9375 8.60267 0.9375H9.90469C10.6756 0.9375 11.3005 1.56244 11.3005 2.33333V10.9874Z" fill="#572E16"/>
<path d="M14.0922 45.6042C14.0922 46.3751 14.7171 47 15.488 47H33.6339C34.4048 47 35.0297 46.3751 35.0297 45.6042V31.6458C35.0297 31.2604 34.7172 30.9479 34.3318 30.9479H14.7901C14.4047 30.9479 14.0922 31.2604 14.0922 31.6458V45.6042Z" fill="#572E16"/>
<path d="M33.6339 2.33333C33.6339 1.56244 33.0089 0.9375 32.238 0.9375H16.8839C16.113 0.9375 15.488 1.56244 15.488 2.33333V10.9874C15.488 11.3729 15.8005 11.6853 16.1859 11.6853H32.9359C33.3214 11.6853 33.6339 11.3729 33.6339 10.9874V2.33333Z" fill="#572E16"/>
</svg>
