<svg width="221" height="105" viewBox="0 0 221 105" fill="none" xmlns="http://www.w3.org/2000/svg">
<g clip-path="url(#clip0_3_184)">
<path opacity="0.24" fill-rule="evenodd" clip-rule="evenodd" d="M18.9645 14.5922L1.83202 79.4412C-2.41673 95.9138 14.5489 109.849 29.9751 102.557L92.5147 77.4325C102.999 72.4769 105.282 58.616 96.9385 50.584L50.3649 5.75079C39.9567 -4.26849 22.5661 0.628161 18.9645 14.5922Z" fill="white"/>
<path fill-rule="evenodd" clip-rule="evenodd" d="M45.9883 38.3679H39.788C39.1151 38.3679 38.5555 38.8349 38.4418 39.4891L33.4401 67.6675C33.3085 68.4267 33.9213 69.1448 34.7014 69.1448H40.8311C41.5443 69.1448 42.1388 68.6499 42.2598 67.9555L44.2288 56.8507C44.2751 56.5802 44.4165 56.3351 44.6279 56.1591C44.8392 55.9832 45.1065 55.888 45.3819 55.8906H47.9513C48.2738 55.8936 48.5867 55.7817 48.8337 55.5751C49.0806 55.3685 49.2453 55.0808 49.2979 54.7639L50.1848 49.5175C50.3131 48.7588 49.7003 48.0448 48.9226 48.0448H46.7679C46.2477 48.0448 45.8389 47.5668 45.9264 47.0596L47.2496 39.8457C47.3812 39.086 46.7684 38.3679 45.9883 38.3679ZM123.684 77.3357C124.971 77.3357 125.956 78.5103 125.725 79.769L123.507 92.1434C123.423 92.6032 123.18 93.0188 122.819 93.3177C122.458 93.6166 122.004 93.7796 121.534 93.7782H101.348C100.958 93.7782 100.628 94.0522 100.558 94.432L100.381 95.508C100.359 95.6269 100.365 95.749 100.396 95.8657C100.427 95.9824 100.483 96.0909 100.561 96.1836C100.639 96.2763 100.736 96.3509 100.846 96.4023C100.955 96.4536 101.075 96.4804 101.196 96.4809H121.926C122.827 96.4809 123.518 97.3044 123.355 98.1851L122.565 102.333C122.507 102.655 122.336 102.946 122.084 103.156C121.831 103.365 121.513 103.479 121.185 103.478H93.8713C92.5838 103.478 91.5828 101.822 91.8143 100.563L94.0432 88.7734C94.127 88.3136 94.3707 87.8978 94.7315 87.599C95.0922 87.3001 95.5471 87.1373 96.0163 87.139H116.4C116.789 87.139 116.94 86.866 117.01 86.4848L117.246 85.3043C117.267 85.1854 117.262 85.0633 117.231 84.9467C117.2 84.83 117.143 84.7215 117.066 84.6288C116.988 84.5362 116.891 84.4615 116.781 84.4102C116.671 84.3588 116.552 84.3319 116.43 84.3314H96.5938C95.6927 84.3314 95.0034 83.5083 95.1652 82.6286L95.9361 78.9705C96.0198 78.5107 96.2634 78.0948 96.6241 77.7959C96.9848 77.497 97.4396 77.3341 97.9088 77.3357H123.684ZM85.471 71.8793C88.5977 71.8793 91.1319 74.4057 91.1319 77.522C91.1319 80.6391 88.5973 83.1659 85.4714 83.1659C82.3447 83.1659 79.8096 80.6391 79.8096 77.5224C79.8096 74.4057 82.3442 71.8793 85.471 71.8793ZM127.451 67.2091C128.197 67.2091 128.785 67.8679 128.709 68.5933L128.699 68.6686L127.85 73.7278C127.799 74.0347 127.645 74.3153 127.413 74.523C127.18 74.7306 126.884 74.8529 126.572 74.8696L126.488 74.8719H97.2048C96.4577 74.8719 95.8696 74.214 95.9457 73.4877L95.9558 73.4123L96.8046 68.3523C96.8554 68.0455 97.0098 67.7653 97.2423 67.5578C97.4747 67.3504 97.7713 67.2282 98.0829 67.2114L98.1673 67.2091H127.451ZM98.143 31.9565C98.3091 31.9559 98.4734 31.9914 98.6243 32.0606C98.7753 32.1299 98.9092 32.2311 99.0167 32.3572C99.1243 32.4833 99.2029 32.6314 99.247 32.7909C99.2912 32.9505 99.2998 33.1177 99.2723 33.2809L99.2576 33.3553L90.9315 66.9284C90.8639 67.219 90.7041 67.4801 90.4757 67.6731C90.2474 67.8661 89.9627 67.9806 89.6638 67.9998L89.5804 68.0026H83.8164C83.6583 68.0031 83.5019 67.9709 83.3569 67.908C83.212 67.8452 83.0817 67.753 82.9745 67.6374C82.8672 67.5218 82.7852 67.3852 82.7336 67.2364C82.6821 67.0875 82.6622 66.9296 82.6751 66.7727L82.6829 66.6987L87.6861 33.1435C87.7321 32.8285 87.8855 32.5389 88.1205 32.3232C88.3555 32.1075 88.6578 31.9788 88.9768 31.9588L89.0583 31.9565H98.1425H98.143ZM67.392 39.3449C75.1919 39.3449 81.1507 45.1587 81.1594 52.7771C81.1695 60.5234 75.0911 66.4326 67.1826 66.3646C59.61 66.3007 53.5678 60.3672 53.5792 53.0067C53.5921 45.0879 59.4001 39.344 67.392 39.3449ZM131 39.4704C132.001 39.4704 132.788 40.3579 132.676 41.3321L132.664 41.4184L131.947 45.6472C131.873 46.0889 131.65 46.492 131.313 46.7886C130.976 47.0853 130.547 47.2574 130.098 47.276L130.002 47.2783H111.136C110.869 47.2762 110.609 47.365 110.399 47.5299C110.19 47.6949 110.043 47.9261 109.983 48.1854L109.968 48.2621L108.846 54.878C108.727 55.6053 109.283 56.2841 110.015 56.3311L110.091 56.3339L127.52 56.4119C128.516 56.416 129.298 57.2985 129.19 58.2672L129.178 58.3531L128.424 62.926C128.352 63.3694 128.129 63.7745 127.792 64.0727C127.455 64.371 127.025 64.5443 126.574 64.5631L126.477 64.5654H100.657C99.3951 64.5654 98.4061 63.4374 98.5656 62.2093L98.5788 62.1212L102.541 41.0924C102.616 40.6526 102.841 40.2519 103.177 39.9571C103.513 39.6623 103.941 39.4913 104.388 39.4727L104.484 39.4704H131ZM67.2435 46.9587C64.1268 47.0514 61.4928 49.7718 61.5299 52.8588C61.5707 56.1869 64.2905 58.7142 67.6849 58.5745C70.9817 58.4384 73.1743 56.0102 73.0854 52.5918C73.0016 49.3637 70.4088 46.8652 67.2435 46.9587ZM171.356 38.3679H165.156C164.834 38.3648 164.522 38.476 164.275 38.6815C164.029 38.887 163.864 39.1733 163.81 39.4891L158.808 67.6675C158.676 68.4267 159.29 69.1448 160.07 69.1448H166.199C166.912 69.1448 167.508 68.6499 167.628 67.9555L169.597 56.8507C169.643 56.5803 169.785 56.3351 169.996 56.1592C170.207 55.9832 170.474 55.888 170.75 55.8906H173.319C173.993 55.8906 174.555 55.4204 174.667 54.7639L175.553 49.5175C175.682 48.7588 175.069 48.0448 174.29 48.0448H172.136C171.616 48.0448 171.207 47.5668 171.295 47.0596L172.618 39.8457C172.75 39.086 172.136 38.3679 171.356 38.3679M216.038 38.3679C216.819 38.3679 217.432 39.086 217.3 39.8457L215.978 47.0596C215.889 47.5668 216.298 48.0448 216.818 48.0448H218.972C219.752 48.0448 220.363 48.7588 220.235 49.5175L219.348 54.7639C219.296 55.0808 219.131 55.3685 218.884 55.5751C218.637 55.7817 218.324 55.8936 218.002 55.8906H215.432C215.157 55.8878 214.89 55.983 214.678 56.1589C214.467 56.3349 214.326 56.5802 214.28 56.8507L212.149 67.9555C212.029 68.6499 211.434 69.1448 210.721 69.1448H204.752C203.971 69.1448 203.359 68.4267 203.49 67.6675L208.492 39.4891C208.546 39.1734 208.711 38.8871 208.958 38.6816C209.204 38.4761 209.516 38.3649 209.838 38.3679H216.038ZM202.325 39.4398C203.559 39.4398 204.523 40.5656 204.32 41.7727L201.977 55.1049C201.904 55.5449 201.676 55.9447 201.334 56.2322C200.992 56.5197 200.557 56.676 200.11 56.6731H186.544C186.171 56.6731 185.859 56.9351 185.798 57.2999L185.642 58.2289C185.561 58.7114 185.946 59.162 186.439 59.162H200.678C201.542 59.162 202.216 59.9504 202.074 60.795L201.25 65.284C201.142 65.9217 200.507 66.381 199.854 66.381H179.185C177.951 66.381 177.077 65.2548 177.28 64.0482L179.465 51.0209C179.537 50.581 179.765 50.1815 180.108 49.8941C180.45 49.6068 180.884 49.4506 181.331 49.4536H195.005C195.377 49.4536 195.69 49.1911 195.751 48.8264L195.958 47.5924C196.039 47.1094 195.654 46.6593 195.16 46.6593H181.995C181.131 46.6593 180.457 45.8704 180.598 45.0254L181.272 41.0071C181.345 40.5672 181.573 40.1677 181.915 39.8803C182.257 39.593 182.691 39.4368 183.139 39.4398H202.325ZM144.984 39.4704H140.115C139.652 39.467 139.203 39.6269 138.848 39.9219C138.492 40.2169 138.252 40.6279 138.172 41.0819L134.041 64.0664C133.814 65.331 134.82 66.5212 136.118 66.5212H154.731C155.191 66.5245 155.638 66.366 155.993 66.0736C156.347 65.7812 156.587 65.3736 156.67 64.9224L157.521 60.3462C157.71 59.3328 156.903 58.3732 155.862 58.3732H145.152C144.375 58.3732 143.771 57.661 143.906 56.9032L146.645 41.4303C146.824 40.4195 146.02 39.4704 144.984 39.4704ZM19.3986 58.5745C16.0051 58.7142 13.2844 56.1869 13.2436 52.8588C13.2065 49.7718 15.8405 47.0519 18.9572 46.9587C22.1238 46.8647 24.7157 49.3637 24.7991 52.5922C24.8885 56.0102 22.6954 58.4384 19.3986 58.5745ZM19.1057 39.3449C11.1133 39.344 5.30573 45.0879 5.29381 53.0067C5.28144 60.3672 11.3236 66.3007 18.8967 66.3646C26.8043 66.4326 32.8832 60.5234 32.8736 52.7771C32.8644 45.1587 26.9061 39.3449 19.1057 39.3449Z" fill="white"/>
</g>
<defs>
<clipPath id="clip0_3_184">
<rect width="220" height="105" fill="white" transform="translate(0.71048)"/>
</clipPath>
</defs>
</svg>
