<svg width="220" height="105" viewBox="0 0 220 105" fill="none" xmlns="http://www.w3.org/2000/svg">
<g clip-path="url(#clip0_3_156)">
<path opacity="0.24" fill-rule="evenodd" clip-rule="evenodd" d="M18.254 14.5923L1.12148 79.4412C-3.12727 95.9139 13.8384 109.849 29.2645 102.557L91.8041 77.4325C102.288 72.4769 104.571 58.616 96.228 50.584L49.6544 5.75081C39.2461 -4.26848 21.8556 0.628176 18.254 14.5923Z" fill="white"/>
<path fill-rule="evenodd" clip-rule="evenodd" d="M45.2778 38.3679H39.0774C38.4046 38.3679 37.845 38.8349 37.7313 39.4891L32.7295 67.6675C32.598 68.4267 33.2108 69.1448 33.9909 69.1448H40.1206C40.8338 69.1448 41.4282 68.6499 41.5492 67.9555L43.5182 56.8507C43.5645 56.5802 43.706 56.3351 43.9173 56.1591C44.1287 55.9832 44.396 55.888 44.6714 55.8906H47.2408C47.5633 55.8936 47.8762 55.7817 48.1231 55.5751C48.3701 55.3685 48.5347 55.0808 48.5874 54.7639L49.4743 49.5175C49.6026 48.7588 48.9898 48.0448 48.212 48.0448H46.0574C45.5372 48.0448 45.1283 47.5668 45.2159 47.0596L46.5391 39.8457C46.6706 39.086 46.0578 38.3679 45.2778 38.3679ZM122.974 77.3357C124.26 77.3357 125.246 78.5103 125.014 79.769L122.797 92.1434C122.713 92.6032 122.469 93.0188 122.108 93.3177C121.748 93.6166 121.293 93.7796 120.824 93.7782H100.637C100.248 93.7782 99.9175 94.0522 99.8474 94.432L99.67 95.508C99.6488 95.6269 99.654 95.749 99.6852 95.8657C99.7164 95.9824 99.7728 96.0909 99.8505 96.1836C99.9283 96.2763 100.025 96.3509 100.135 96.4023C100.245 96.4536 100.365 96.4804 100.486 96.4809H121.216C122.117 96.4809 122.807 97.3044 122.644 98.1851L121.855 102.333C121.796 102.655 121.626 102.946 121.373 103.156C121.121 103.365 120.803 103.479 120.474 103.478H93.1608C91.8733 103.478 90.8723 101.822 91.1038 100.563L93.3326 88.7734C93.4165 88.3136 93.6602 87.8978 94.0209 87.599C94.3817 87.3001 94.8366 87.1373 95.3058 87.139H115.689C116.079 87.139 116.229 86.866 116.3 86.4848L116.536 85.3043C116.557 85.1854 116.552 85.0633 116.52 84.9467C116.489 84.83 116.433 84.7215 116.355 84.6288C116.277 84.5362 116.18 84.4615 116.071 84.4102C115.961 84.3588 115.841 84.3319 115.72 84.3314H95.8833C94.9822 84.3314 94.2928 83.5083 94.4546 82.6286L95.2256 78.9705C95.3093 78.5107 95.5528 78.0948 95.9135 77.7959C96.2742 77.497 96.729 77.3341 97.1982 77.3357H122.974ZM84.7604 71.8793C87.8872 71.8793 90.4213 74.4057 90.4213 77.522C90.4213 80.6391 87.8867 83.1659 84.7609 83.1659C81.6341 83.1659 79.0991 80.6391 79.0991 77.5224C79.0991 74.4057 81.6337 71.8793 84.7604 71.8793ZM126.74 67.2091C127.487 67.2091 128.075 67.8679 127.999 68.5933L127.989 68.6686L127.139 73.7278C127.089 74.0347 126.935 74.3153 126.702 74.523C126.47 74.7306 126.173 74.8529 125.861 74.8696L125.777 74.8719H96.4942C95.7471 74.8719 95.1591 74.214 95.2352 73.4877L95.2453 73.4123L96.0941 68.3523C96.1449 68.0455 96.2993 67.7653 96.5317 67.5578C96.7642 67.3504 97.0607 67.2282 97.3724 67.2114L97.4567 67.2091H126.74ZM97.4324 31.9565C97.5986 31.9559 97.7629 31.9914 97.9138 32.0606C98.0647 32.1299 98.1986 32.2311 98.3062 32.3572C98.4138 32.4833 98.4924 32.6314 98.5365 32.7909C98.5807 32.9505 98.5893 33.1177 98.5618 33.2809L98.5471 33.3553L90.221 66.9284C90.1534 67.219 89.9935 67.4801 89.7652 67.6731C89.5368 67.8661 89.2521 67.9806 88.9533 67.9998L88.8698 68.0026H83.1059C82.9478 68.0031 82.7913 67.9709 82.6464 67.908C82.5015 67.8452 82.3712 67.753 82.2639 67.6374C82.1566 67.5218 82.0746 67.3852 82.0231 67.2364C81.9716 67.0875 81.9516 66.9296 81.9646 66.7727L81.9724 66.6987L86.9756 33.1435C87.0216 32.8285 87.175 32.5389 87.41 32.3232C87.645 32.1075 87.9473 31.9788 88.2662 31.9588L88.3478 31.9565H97.432H97.4324ZM66.6815 39.3449C74.4814 39.3449 80.4402 45.1587 80.4489 52.7771C80.459 60.5234 74.3806 66.4326 66.472 66.3646C58.8994 66.3007 52.8572 60.3672 52.8687 53.0067C52.8815 45.0879 58.6895 39.344 66.6815 39.3449ZM130.289 39.4704C131.291 39.4704 132.077 40.3579 131.966 41.3321L131.953 41.4184L131.236 45.6472C131.163 46.0889 130.939 46.492 130.602 46.7886C130.266 47.0853 129.837 47.2574 129.387 47.276L129.291 47.2783H110.425C110.158 47.2762 109.898 47.365 109.689 47.5299C109.479 47.6949 109.332 47.9261 109.273 48.1854L109.257 48.2621L108.136 54.878C108.017 55.6053 108.572 56.2841 109.305 56.3311L109.381 56.3339L126.809 56.4119C127.805 56.416 128.587 57.2985 128.479 58.2672L128.468 58.3531L127.714 62.926C127.642 63.3694 127.418 63.7745 127.081 64.0727C126.744 64.371 126.314 64.5443 125.864 64.5631L125.767 64.5654H99.9468C98.6846 64.5654 97.6955 63.4374 97.855 62.2093L97.8683 62.1212L101.83 41.0924C101.905 40.6526 102.13 40.2519 102.466 39.9571C102.803 39.6623 103.23 39.4913 103.678 39.4727L103.774 39.4704H130.289ZM66.533 46.9587C63.4163 47.0514 60.7823 49.7718 60.8194 52.8588C60.8602 56.1869 63.5799 58.7142 66.9744 58.5745C70.2711 58.4384 72.4638 56.0102 72.3749 52.5918C72.291 49.3637 69.6982 46.8652 66.533 46.9587ZM170.645 38.3679H164.445C164.124 38.3648 163.812 38.476 163.565 38.6815C163.318 38.887 163.153 39.1733 163.099 39.4891L158.098 67.6675C157.966 68.4267 158.579 69.1448 159.36 69.1448H165.489C166.202 69.1448 166.797 68.6499 166.917 67.9555L168.887 56.8507C168.933 56.5803 169.074 56.3351 169.285 56.1592C169.497 55.9832 169.764 55.888 170.039 55.8906H172.609C173.282 55.8906 173.844 55.4204 173.956 54.7639L174.842 49.5175C174.971 48.7588 174.359 48.0448 173.58 48.0448H171.426C170.905 48.0448 170.496 47.5668 170.585 47.0596L171.907 39.8457C172.039 39.086 171.426 38.3679 170.646 38.3679M215.328 38.3679C216.108 38.3679 216.721 39.086 216.589 39.8457L215.267 47.0596C215.179 47.5668 215.588 48.0448 216.107 48.0448H218.262C219.041 48.0448 219.652 48.7588 219.524 49.5175L218.638 54.7639C218.585 55.0808 218.42 55.3685 218.173 55.5751C217.927 55.7817 217.614 55.8936 217.291 55.8906H214.722C214.446 55.8878 214.179 55.983 213.968 56.1589C213.756 56.3349 213.615 56.5802 213.569 56.8507L211.439 67.9555C211.319 68.6499 210.723 69.1448 210.01 69.1448H204.042C203.261 69.1448 202.648 68.4267 202.779 67.6675L207.782 39.4891C207.835 39.1734 208.001 38.8871 208.247 38.6816C208.494 38.4761 208.806 38.3649 209.127 38.3679H215.328ZM201.614 39.4398C202.849 39.4398 203.812 40.5656 203.609 41.7727L201.266 55.1049C201.193 55.5449 200.965 55.9447 200.623 56.2322C200.281 56.5197 199.847 56.676 199.399 56.6731H185.834C185.46 56.6731 185.148 56.9351 185.087 57.2999L184.931 58.2289C184.85 58.7114 185.236 59.162 185.729 59.162H199.967C200.831 59.162 201.505 59.9504 201.363 60.795L200.539 65.284C200.432 65.9217 199.796 66.381 199.143 66.381H178.475C177.24 66.381 176.367 65.2548 176.569 64.0482L178.754 51.0209C178.827 50.581 179.055 50.1815 179.397 49.8941C179.739 49.6068 180.173 49.4506 180.621 49.4536H194.294C194.666 49.4536 194.979 49.1911 195.04 48.8264L195.247 47.5924C195.328 47.1094 194.943 46.6593 194.449 46.6593H181.285C180.421 46.6593 179.746 45.8704 179.887 45.0254L180.561 41.0071C180.634 40.5672 180.862 40.1677 181.204 39.8803C181.547 39.593 181.98 39.4368 182.428 39.4398H201.614ZM144.273 39.4704H139.405C138.942 39.467 138.493 39.6269 138.137 39.9219C137.781 40.2169 137.542 40.6279 137.461 41.0819L133.33 64.0664C133.103 65.331 134.11 66.5212 135.407 66.5212H154.02C154.481 66.5245 154.927 66.366 155.282 66.0736C155.637 65.7812 155.877 65.3736 155.96 64.9224L156.811 60.3462C157 59.3328 156.192 58.3732 155.152 58.3732H144.442C143.665 58.3732 143.06 57.661 143.195 56.9032L145.935 41.4303C146.113 40.4195 145.309 39.4704 144.273 39.4704ZM18.688 58.5745C15.2945 58.7142 12.5739 56.1869 12.5331 52.8588C12.4959 49.7718 15.13 47.0519 18.2466 46.9587C21.4133 46.8647 24.0051 49.3637 24.0886 52.5922C24.1779 56.0102 21.9848 58.4384 18.688 58.5745ZM18.3951 39.3449C10.4027 39.344 4.59519 45.0879 4.58327 53.0067C4.5709 60.3672 10.6131 66.3007 18.1861 66.3646C26.0938 66.4326 32.1726 60.5234 32.163 52.7771C32.1539 45.1587 26.1955 39.3449 18.3951 39.3449Z" fill="white"/>
</g>
<defs>
<clipPath id="clip0_3_156">
<rect width="220" height="105" fill="white"/>
</clipPath>
</defs>
</svg>
