<svg width="185" height="171" viewBox="0 0 185 171" fill="none" xmlns="http://www.w3.org/2000/svg">
<g filter="url(#filter0_d_3_311)">
<path fill-rule="evenodd" clip-rule="evenodd" d="M28.9062 57C28.9062 38.3086 45.2992 23.1562 65.5208 23.1562H142.604C150.054 23.1562 156.094 28.7387 156.094 35.625V142.5C156.094 149.386 150.054 154.969 142.604 154.969H57.8125C41.848 154.969 28.9062 143.006 28.9062 128.25V57ZM144.531 35.625V101.531H57.8125C51.3051 101.531 45.2999 103.519 40.4688 106.873V57C40.4688 44.2112 51.685 33.8438 65.5208 33.8438H90.2484C88.2189 47.9622 88.4012 62.2888 90.7998 76.3801L91.2808 79.2055C91.6252 81.2292 93.191 82.8928 95.3117 83.4881C97.4324 84.0834 99.7346 83.5057 101.238 82.0009L111.771 71.4618L122.303 82.0009C123.807 83.5057 126.109 84.0834 128.23 83.4881C130.351 82.8928 131.917 81.2292 132.261 79.2055L132.742 76.3801C135.141 62.2888 135.323 47.9622 133.293 33.8438H142.604C143.668 33.8438 144.531 34.6412 144.531 35.625ZM121.621 33.8438H101.921C100.247 44.6323 99.9678 55.5621 101.086 66.4027L106.109 61.3769C109.161 58.3231 114.381 58.3231 117.433 61.3769L122.456 66.4027C123.574 55.5621 123.295 44.6323 121.621 33.8438ZM57.8125 112.219H144.531V142.5C144.531 143.484 143.668 144.281 142.604 144.281H57.8125C48.2338 144.281 40.4688 137.104 40.4688 128.25C40.4688 119.396 48.2338 112.219 57.8125 112.219Z" fill="#572E16"/>
<path fill-rule="evenodd" clip-rule="evenodd" d="M28.9062 57C28.9062 38.3086 45.2992 23.1562 65.5208 23.1562H142.604C150.054 23.1562 156.094 28.7387 156.094 35.625V142.5C156.094 149.386 150.054 154.969 142.604 154.969H57.8125C41.848 154.969 28.9062 143.006 28.9062 128.25V57ZM144.531 35.625V101.531H57.8125C51.3051 101.531 45.2999 103.519 40.4688 106.873V57C40.4688 44.2112 51.685 33.8438 65.5208 33.8438H90.2484C88.2189 47.9622 88.4012 62.2888 90.7998 76.3801L91.2808 79.2055C91.6252 81.2292 93.191 82.8928 95.3117 83.4881C97.4324 84.0834 99.7346 83.5057 101.238 82.0009L111.771 71.4618L122.303 82.0009C123.807 83.5057 126.109 84.0834 128.23 83.4881C130.351 82.8928 131.917 81.2292 132.261 79.2055L132.742 76.3801C135.141 62.2888 135.323 47.9622 133.293 33.8438H142.604C143.668 33.8438 144.531 34.6412 144.531 35.625ZM121.621 33.8438H101.921C100.247 44.6323 99.9678 55.5621 101.086 66.4027L106.109 61.3769C109.161 58.3231 114.381 58.3231 117.433 61.3769L122.456 66.4027C123.574 55.5621 123.295 44.6323 121.621 33.8438ZM57.8125 112.219H144.531V142.5C144.531 143.484 143.668 144.281 142.604 144.281H57.8125C48.2338 144.281 40.4688 137.104 40.4688 128.25C40.4688 119.396 48.2338 112.219 57.8125 112.219Z" stroke="black"/>
</g>
<defs>
<filter id="filter0_d_3_311" x="28.4062" y="22.6562" width="136.188" height="140.812" filterUnits="userSpaceOnUse" color-interpolation-filters="sRGB">
<feFlood flood-opacity="0" result="BackgroundImageFix"/>
<feColorMatrix in="SourceAlpha" type="matrix" values="0 0 0 0 0 0 0 0 0 0 0 0 0 0 0 0 0 0 127 0" result="hardAlpha"/>
<feOffset dx="4" dy="4"/>
<feGaussianBlur stdDeviation="2"/>
<feComposite in2="hardAlpha" operator="out"/>
<feColorMatrix type="matrix" values="0 0 0 0 0 0 0 0 0 0 0 0 0 0 0 0 0 0 0.4 0"/>
<feBlend mode="normal" in2="BackgroundImageFix" result="effect1_dropShadow_3_311"/>
<feBlend mode="normal" in="SourceGraphic" in2="effect1_dropShadow_3_311" result="shape"/>
</filter>
</defs>
</svg>
