<svg width="50" height="43" viewBox="0 0 50 43" fill="none" xmlns="http://www.w3.org/2000/svg">
<path d="M42.596 28.7756C42.7963 29.1157 42.7243 29.5276 42.4165 29.8021C42.1087 30.0766 41.6327 30.1534 41.2302 29.9936L36.0232 27.9269C31.647 26.1899 26.8712 25.3952 22.1038 25.5821C22.0471 26.8988 21.9631 28.2147 21.8517 29.5294L21.7091 31.2117C21.6226 32.2323 20.2993 32.8029 19.2966 32.2519C14.9445 29.8603 11.1611 26.7787 8.14791 23.1714L7.18919 22.0236C6.92831 21.7113 6.92831 21.2906 7.18919 20.9783L8.14791 19.8306C11.1611 16.2232 14.9445 13.1416 19.2966 10.7501C20.2993 10.1991 21.6226 10.7696 21.7091 11.7902L21.8517 13.4725C21.9473 14.601 22.0228 15.7305 22.0781 16.8604H23.4178C30.8782 16.8604 37.7047 20.4682 41.0749 26.1922L42.596 28.7756Z" fill="#B66232"></path>
</svg>
